<?xml version="1.0" standalone="no"?>
<svg xmlns="http://www.w3.org/2000/svg" viewBox="0 0 153.296875 124.22978703157824" width="153.296875" height="124.22978703157824"><rect fill="none" stroke="#8F7D3F" stroke-width="4" width="149.296875" height="120.22978703157824" x="2" y="2"></rect><g fill="#FAF8F1" color="#FAF8F1" transform="translate(51.649 12) scale(0.3184714)"><svg width="157.0" height="95.0" x="0.0" y="0.0" viewBox="0 0 157 95"><g><path d="M155.8,79.9c-0.9-1.2-23.4-28.7-72.4-45v-4.7c0-5.7,11.1-7.2,11.1-17.7C94.6,4.3,86.9,0,79.8,0c-8.6,0-13.3,5.3-13.3,5.3   c-1.2,1.2-2.6,4.1-0.7,6.9c2,2.8,5.8,1.5,6.8,0.6c0,0,3-2.7,6.1-2.7c2.4,0,4.6,1.6,4.6,3.8c0,5.4-9.9,6.9-9.9,15.5v5.6   C24.4,51.2,2,78.7,1.1,79.9c-0.9,1.1-1.3,2.6-1,4c0.3,1.4,1.2,2.6,2.5,3.3C13.2,93,51.1,95,80.2,95c13.6,0,59-0.5,74.1-7.6   c1.4-0.6,2.2-1.9,2.6-3.3C157.2,82.7,156.8,81.1,155.8,79.9z M80.2,85.2c-28,0-53.9-1.8-66.5-4.5c8.9-8.7,30-26.1,64.8-37.1   c34.8,11.1,55.8,28.4,64.8,37.1C130.9,83.5,107.6,85.2,80.2,85.2z"></path></g></svg></g><path fill="#FAF8F1" fill-rule="nonzero" d="M6.91 5.49L6.91 5.49Q6.76 5.49 6.32 5.56Q5.88 5.63 5.29 5.72Q4.71 5.82 4.06 5.95Q3.42 6.07 2.85 6.17Q2.29 6.27 1.87 6.34Q1.45 6.41 1.31 6.41L1.31 6.41Q0 6.41 0 5.04L0 5.04Q0 4.67 0.07 4.31Q0.14 3.95 0.31 3.64Q0.49 3.34 0.78 3.13Q1.07 2.91 1.52 2.83L1.52 2.83Q3.81 2.48 6.07 2.09Q8.34 1.70 10.64 1.27L10.64 1.27Q11.15 1.17 11.56 1.08Q11.97 1.00 12.48 0.84L12.48 0.84Q13.03 0.68 13.67 0.54Q14.32 0.39 14.97 0.27Q15.63 0.16 16.24 0.08Q16.86 0 17.36 0L17.36 0Q17.99 0 18.31 0.40Q18.63 0.80 18.63 1.52L18.63 1.52Q18.63 1.89 18.57 2.24Q18.52 2.58 18.36 2.85Q18.20 3.13 17.93 3.30Q17.66 3.48 17.23 3.52L17.23 3.52Q16.11 3.67 14.84 3.90Q13.57 4.12 12.64 4.39L12.64 4.39Q12.25 4.51 12.05 4.78Q11.86 5.04 11.80 5.43L11.80 5.43Q11.74 5.80 11.73 6.18Q11.72 6.56 11.72 6.91L11.72 6.91Q11.72 7.73 11.79 8.55Q11.86 9.38 11.91 10.20L11.91 10.20Q12.09 13.01 12.45 15.76Q12.81 18.52 13.24 21.33L13.24 21.33Q13.28 21.43 13.28 21.52Q13.28 21.62 13.28 21.72L13.28 21.72Q13.28 22.79 12.07 23.24L12.07 23.24L11.19 23.52Q10.84 23.63 10.51 23.63L10.51 23.63Q10 23.63 9.69 23.31Q9.38 22.99 9.28 22.36L9.28 22.36Q8.73 19.00 8.32 15.67Q7.91 12.34 7.79 8.96L7.79 8.96Q7.75 8.42 7.73 7.77Q7.71 7.13 7.71 6.45L7.71 6.45Q7.71 5.49 6.91 5.49ZM19.26 3.48L19.26 3.48Q19.26 3.13 19.43 2.82Q19.61 2.52 19.92 2.29Q20.23 2.07 20.65 1.93Q21.07 1.80 21.54 1.80L21.54 1.80Q22.46 1.80 22.89 2.09Q23.32 2.38 23.42 3.01L23.42 3.01Q23.75 5.61 23.97 7.92Q24.20 10.23 24.34 12.33Q24.47 14.43 24.53 16.36Q24.59 18.28 24.59 20.08L24.59 20.08Q24.59 21.05 23.90 21.54Q23.20 22.03 21.88 22.03L21.88 22.03Q21.27 22.03 20.93 21.75Q20.59 21.46 20.59 20.92L20.59 20.92Q20.59 17.56 20.38 14.62Q20.18 11.68 19.92 9.39Q19.67 7.11 19.46 5.58Q19.26 4.04 19.26 3.48ZM30 16.91L30 16.91Q29.94 16.91 29.81 16.93Q29.69 16.95 29.54 16.97Q29.39 16.99 29.26 17.01Q29.12 17.03 29.04 17.03L29.04 17.03Q28.50 17.03 28.09 16.57Q27.68 16.11 27.68 15.35L27.68 15.35Q27.68 14.84 28.01 14.38Q28.34 13.91 29.04 13.59L29.04 13.59Q29.26 13.50 29.38 13.37Q29.51 13.24 29.51 13.01L29.51 13.01Q29.51 12.38 29.48 11.67Q29.45 10.96 29.39 10L29.39 10Q29.38 9.80 29.27 9.63Q29.16 9.45 29.03 9.23Q28.91 9.00 28.81 8.73Q28.71 8.46 28.71 8.05L28.71 8.05Q28.71 7.68 28.82 7.20Q28.93 6.72 29.27 6.30Q29.61 5.88 30.22 5.60Q30.84 5.31 31.84 5.31L31.84 5.31Q32.25 5.31 32.52 5.39Q32.79 5.47 33.00 5.58Q33.20 5.68 33.37 5.76Q33.54 5.84 33.71 5.84L33.71 5.84Q34.02 5.84 34.96 5.72Q35.90 5.61 37.22 5.39Q38.54 5.18 40.13 4.90Q41.72 4.63 43.36 4.31Q45 3.98 46.56 3.65Q48.13 3.32 49.39 3.01L49.39 3.01Q49.79 2.91 50.08 2.91L50.08 2.91Q50.49 2.91 50.73 3.10Q50.98 3.28 51.09 3.55Q51.21 3.83 51.24 4.17Q51.27 4.51 51.27 4.80L51.27 4.80Q51.27 5.31 50.93 5.75Q50.59 6.19 49.80 6.45L49.80 6.45Q47.87 7.01 45.91 7.43Q43.95 7.85 41.95 8.19Q39.96 8.54 37.95 8.81Q35.94 9.08 33.95 9.36L33.95 9.36Q33.67 9.39 33.54 9.56Q33.40 9.73 33.40 10L33.40 10L33.40 10.80Q33.40 11.13 33.42 11.48Q33.44 11.84 33.51 12.13Q33.57 12.42 33.69 12.61Q33.81 12.79 34.00 12.79L34.00 12.79Q34.47 12.79 35.46 12.60Q36.45 12.40 37.69 12.12Q38.93 11.84 40.28 11.49Q41.64 11.15 42.85 10.87Q44.06 10.59 44.98 10.39Q45.90 10.20 46.27 10.20L46.27 10.20Q46.82 10.20 47.10 10.60Q47.38 11.00 47.48 11.60L47.48 11.60Q47.48 11.70 47.50 11.78Q47.52 11.86 47.52 11.95L47.52 11.95Q47.52 12.52 47.18 13.00Q46.84 13.48 45.96 13.71L45.96 13.71Q45.72 13.79 45.02 13.96Q44.32 14.12 43.36 14.35Q42.40 14.57 41.29 14.82Q40.18 15.08 39.10 15.32Q38.03 15.57 37.10 15.79Q36.17 16.02 35.59 16.15L35.59 16.15Q35.06 16.29 34.95 16.37Q34.84 16.45 34.84 16.56L34.84 16.56Q34.88 16.99 35.28 17.36Q35.68 17.73 36.30 18.05Q36.91 18.36 37.69 18.61Q38.46 18.87 39.29 19.03Q40.12 19.20 40.92 19.30Q41.72 19.39 42.40 19.39L42.40 19.39Q42.70 19.39 43.24 19.39Q43.79 19.39 44.44 19.37Q45.10 19.34 45.79 19.28Q46.48 19.22 47.04 19.11Q47.60 19.00 47.96 18.84Q48.32 18.67 48.32 18.44L48.32 18.44Q48.32 18.22 48.17 17.99Q48.03 17.75 48.03 17.48L48.03 17.48Q48.03 17.09 48.24 16.71Q48.46 16.33 48.80 16.03Q49.14 15.72 49.58 15.54Q50.02 15.35 50.47 15.35L50.47 15.35Q51.04 15.35 51.50 15.58Q51.97 15.80 52.31 16.16Q52.66 16.52 52.84 16.99Q53.03 17.46 53.03 17.95L53.03 17.95Q53.03 19.24 52.08 20.18Q51.13 21.11 49.61 21.73Q48.09 22.34 46.17 22.65Q44.26 22.95 42.32 22.95L42.32 22.95Q40.06 22.95 38.18 22.65Q36.31 22.34 34.82 21.68Q33.34 21.02 32.27 19.95Q31.19 18.89 30.51 17.36L30.51 17.36Q30.27 16.91 30 16.91ZM57.87 11.95L57.87 11.95Q57.87 12.77 57.95 13.65Q58.03 14.53 58.13 15.41Q58.24 16.29 58.32 17.18Q58.40 18.07 58.40 18.93L58.40 18.93Q58.40 19.88 57.73 20.48Q57.07 21.07 55.96 21.07L55.96 21.07Q55.41 21.07 54.93 20.74Q54.45 20.41 54.39 19.69L54.39 19.69Q54.30 18.77 54.21 17.63Q54.12 16.48 54.05 15.26Q53.98 14.04 53.93 12.80Q53.87 11.56 53.83 10.42Q53.79 9.28 53.77 8.31Q53.75 7.34 53.75 6.68L53.75 6.68Q53.75 6.09 53.83 5.57Q53.91 5.04 54.16 4.65Q54.41 4.26 54.85 4.02Q55.29 3.79 56.04 3.79L56.04 3.79Q56.60 3.79 57.30 4.19Q58.01 4.59 58.82 5.27Q59.63 5.96 60.55 6.85Q61.46 7.73 62.44 8.71Q63.42 9.69 64.44 10.69Q65.47 11.70 66.52 12.60L66.52 12.60Q66.99 13.01 67.59 13.55Q68.18 14.10 68.82 14.59Q69.45 15.08 70.09 15.42Q70.72 15.76 71.31 15.76L71.31 15.76Q71.86 15.76 72.02 15.28Q72.19 14.80 72.19 13.75L72.19 13.75Q72.19 12.97 72.06 11.82Q71.93 10.66 71.70 9.36Q71.46 8.05 71.11 6.73Q70.76 5.41 70.31 4.32L70.31 4.32Q70.21 4.08 70.13 3.86Q70.04 3.63 70.04 3.36L70.04 3.36Q70.04 2.91 70.33 2.56Q70.63 2.21 71.04 1.97Q71.45 1.74 71.89 1.61Q72.34 1.48 72.64 1.48L72.64 1.48Q73.28 1.48 73.79 2.18Q74.30 2.87 74.68 3.97Q75.06 5.08 75.31 6.46Q75.57 7.83 75.73 9.22Q75.90 10.61 75.97 11.87Q76.04 13.13 76.04 13.96L76.04 13.96Q76.04 15.55 75.91 16.75Q75.78 17.95 75.38 18.77Q74.98 19.59 74.22 20.01Q73.46 20.43 72.19 20.43L72.19 20.43Q71.17 20.43 70.06 20.01Q68.95 19.59 67.80 18.88Q66.66 18.16 65.50 17.25Q64.34 16.33 63.22 15.33Q62.11 14.34 61.06 13.34Q60.02 12.34 59.12 11.48L59.12 11.48Q58.75 11.11 58.44 11.11L58.44 11.11Q58.16 11.11 58.02 11.34Q57.87 11.56 57.87 11.95ZM77.64 6.80L77.64 6.80Q77.38 6.84 77.21 6.86Q77.03 6.88 76.91 6.88L76.91 6.88Q76.25 6.84 75.98 6.49Q75.70 6.15 75.70 5.35L75.70 5.35Q75.70 3.77 77.23 3.36L77.23 3.36Q78.57 3.05 80.12 2.90Q81.66 2.75 83.55 2.75L83.55 2.75Q86.09 2.75 88.60 3.24Q91.11 3.73 93.39 4.58Q95.66 5.43 97.62 6.59Q99.57 7.75 101.01 9.11Q102.44 10.47 103.25 11.96Q104.06 13.46 104.06 14.96L104.06 14.96Q104.06 16.48 103.04 17.86Q102.01 19.24 100.27 20.29Q98.54 21.35 96.25 21.97Q93.96 22.60 91.46 22.60L91.46 22.60Q89.47 22.60 87.30 22.23Q85.14 21.86 82.52 21.04L82.52 21.04Q81.31 20.70 81.31 19.55L81.31 19.55Q81.31 19.30 81.43 19.08Q81.54 18.87 81.67 18.67Q81.80 18.48 81.91 18.29Q82.03 18.11 82.03 17.91L82.03 17.91Q82.03 16.80 81.92 15.53Q81.82 14.26 81.63 12.99Q81.45 11.72 81.20 10.56Q80.96 9.39 80.70 8.50Q80.45 7.60 80.19 7.06Q79.92 6.52 79.71 6.52L79.71 6.52Q79.38 6.52 78.90 6.60Q78.42 6.68 77.64 6.80ZM85.16 6.48L85.16 6.48Q84.59 6.48 84.59 6.88L84.59 6.88Q84.59 6.97 84.65 7.21Q84.71 7.44 84.82 7.95L84.82 7.95Q85 8.77 85.16 9.71Q85.31 10.64 85.47 11.81Q85.63 12.97 85.77 14.40Q85.92 15.84 86.07 17.64L86.07 17.64Q86.09 17.93 86.60 18.19Q87.11 18.46 87.95 18.66Q88.79 18.87 89.87 18.99Q90.96 19.12 92.11 19.12L92.11 19.12Q93.63 19.12 95.03 18.76Q96.43 18.40 97.49 17.79Q98.55 17.19 99.19 16.39Q99.82 15.59 99.82 14.73L99.82 14.73Q99.82 13.30 98.70 11.95Q97.58 10.61 95.61 9.50Q93.63 8.40 90.96 7.61Q88.28 6.82 85.16 6.48ZM105.47 17.83L105.21 17.83Q104.88 17.83 104.72 17.50Q104.55 17.17 104.55 16.56L104.55 16.56Q104.55 16.46 104.55 16.34Q104.55 16.21 104.59 15.84L104.59 15.84Q104.65 14.43 105.98 14.20L105.98 14.20L106.43 14.16Q106.88 14.10 107.13 13.88Q107.38 13.65 107.50 13.24L107.50 13.24Q107.83 12.13 108.16 11.00Q108.50 9.86 108.87 8.75L108.87 8.75Q109.06 8.13 109.27 7.41Q109.47 6.70 109.72 6.00Q109.96 5.29 110.28 4.61Q110.61 3.93 111.02 3.36L111.02 3.36Q111.19 3.13 111.50 2.87Q111.82 2.62 112.22 2.41Q112.62 2.21 113.08 2.08Q113.54 1.95 113.98 1.95L113.98 1.95Q114.57 1.95 115.14 2.32L115.14 2.32Q115.90 2.85 116.64 3.59Q117.38 4.34 118.30 5.49Q119.22 6.64 120.43 8.27Q121.64 9.90 123.34 12.21L123.34 12.21Q123.59 12.50 123.88 12.65Q124.16 12.79 124.55 12.79L124.55 12.79L125.66 12.79Q126.35 12.79 126.73 13.12Q127.11 13.44 127.11 14.00L127.11 14.00Q127.11 14.12 127.10 14.28Q127.09 14.43 127.03 14.59L127.03 14.59L126.66 15.68Q126.62 15.84 126.60 15.96Q126.58 16.07 126.58 16.19L126.58 16.19Q126.58 16.60 126.86 17.03L126.86 17.03L128.95 19.88Q129.30 20.41 129.30 20.88L129.30 20.88Q129.30 21.58 128.50 22.11L128.50 22.11L127.75 22.64Q127.48 22.81 127.24 22.91Q126.99 23.01 126.74 23.01L126.74 23.01Q126.39 23.01 126.08 22.80Q125.78 22.60 125.51 22.25L125.51 22.25Q124.57 20.92 123.62 19.63Q122.68 18.34 121.70 17.07L121.70 17.07Q121.25 16.45 120.51 16.45L120.51 16.45Q118.13 16.54 115.79 16.71Q113.46 16.88 111.11 17.11L111.11 17.11Q110.27 17.19 110.06 18.01L110.06 18.01L109.18 21.23Q108.83 22.52 107.62 22.52L107.62 22.52L107.30 22.52L106.70 22.44Q106.04 22.38 105.69 22.03Q105.35 21.68 105.35 21.11L105.35 21.11Q105.35 21.00 105.37 20.86Q105.39 20.72 105.43 20.57L105.43 20.57Q105.53 20.18 105.63 19.77Q105.74 19.36 105.86 18.96L105.86 18.96Q105.90 18.81 105.92 18.68Q105.94 18.55 105.94 18.44L105.94 18.44Q105.94 17.83 105.47 17.83L105.47 17.83ZM114.51 7.52L114.51 7.52Q114.32 7.34 114.16 7.23Q114.00 7.11 113.83 7.11L113.83 7.11Q113.34 7.11 113.14 7.79L113.14 7.79Q112.75 8.95 112.39 10.07Q112.03 11.19 111.66 12.36L111.66 12.36Q111.62 12.46 111.62 12.54Q111.62 12.62 111.62 12.71L111.62 12.71Q111.62 13.44 112.38 13.44L112.38 13.44L112.58 13.44Q113.75 13.28 114.92 13.19Q116.09 13.11 117.27 13.05L117.27 13.05Q117.66 13.01 117.88 12.84Q118.11 12.68 118.11 12.40L118.11 12.40Q118.11 12.15 117.87 11.80L117.87 11.80Q117.05 10.70 116.22 9.64Q115.39 8.57 114.51 7.52Z" transform="translate(12 57.255) scale(1)"></path><path fill="#FAF8F1" fill-rule="nonzero" d="M9.73 22.68L9.73 22.68Q7.60 22.68 5.81 21.95Q4.02 21.23 2.73 19.93Q1.45 18.63 0.72 16.84Q0 15.04 0 12.87L0 12.87Q0 11.70 0.21 10.62Q0.41 9.53 0.76 8.59L0.76 8.59Q0.92 8.22 0.92 8.07L0.92 8.07Q0.92 7.87 0.82 7.70Q0.72 7.52 0.61 7.32Q0.49 7.13 0.39 6.91Q0.29 6.70 0.29 6.43L0.29 6.43Q0.29 5.61 1.23 4.81Q2.17 4.02 3.71 3.41Q5.25 2.79 7.21 2.41Q9.16 2.03 11.21 2.03L11.21 2.03Q13.73 2.03 15.75 2.68Q17.77 3.32 19.19 4.52Q20.61 5.72 21.37 7.44Q22.13 9.16 22.13 11.31L22.13 11.31Q22.13 13.71 21.17 15.79Q20.21 17.87 18.54 19.39Q16.88 20.92 14.61 21.80Q12.34 22.68 9.73 22.68ZM18.20 12.07L18.20 12.07Q18.20 10.55 17.68 9.34Q17.15 8.13 16.15 7.29Q15.16 6.46 13.70 6.03Q12.25 5.59 10.41 5.59L10.41 5.59Q7.19 5.59 5.56 7.22Q3.93 8.85 3.93 12.07L3.93 12.07Q3.93 13.63 4.41 14.93Q4.90 16.23 5.78 17.16Q6.66 18.09 7.88 18.60Q9.10 19.12 10.57 19.12L10.57 19.12Q12.25 19.12 13.65 18.60Q15.06 18.09 16.06 17.15Q17.07 16.21 17.64 14.91Q18.20 13.61 18.20 12.07ZM29.04 10.47L29.04 10.47Q29.04 11.29 29.12 12.17Q29.20 13.05 29.31 13.93Q29.41 14.80 29.49 15.69Q29.57 16.58 29.57 17.44L29.57 17.44Q29.57 18.40 28.91 18.99Q28.24 19.59 27.13 19.59L27.13 19.59Q26.58 19.59 26.10 19.26Q25.63 18.93 25.57 18.20L25.57 18.20Q25.47 17.29 25.38 16.14Q25.29 15 25.22 13.78Q25.16 12.56 25.10 11.32Q25.04 10.08 25 8.94Q24.96 7.79 24.94 6.83Q24.92 5.86 24.92 5.20L24.92 5.20Q24.92 4.61 25 4.08Q25.08 3.55 25.33 3.16Q25.59 2.77 26.03 2.54Q26.46 2.30 27.21 2.30L27.21 2.30Q27.77 2.30 28.48 2.71Q29.18 3.11 29.99 3.79Q30.80 4.47 31.72 5.36Q32.64 6.25 33.61 7.23Q34.59 8.20 35.62 9.21Q36.64 10.21 37.70 11.11L37.70 11.11Q38.16 11.52 38.76 12.07Q39.36 12.62 39.99 13.11Q40.63 13.59 41.26 13.94Q41.89 14.28 42.48 14.28L42.48 14.28Q43.03 14.28 43.19 13.80Q43.36 13.32 43.36 12.27L43.36 12.27Q43.36 11.48 43.23 10.33Q43.11 9.18 42.87 7.87Q42.64 6.56 42.29 5.24Q41.93 3.93 41.48 2.83L41.48 2.83Q41.39 2.60 41.30 2.37Q41.21 2.15 41.21 1.88L41.21 1.88Q41.21 1.43 41.50 1.07Q41.80 0.72 42.21 0.49Q42.62 0.25 43.07 0.13Q43.52 0 43.81 0L43.81 0Q44.45 0 44.96 0.69Q45.47 1.39 45.85 2.49Q46.23 3.59 46.48 4.97Q46.74 6.35 46.90 7.73Q47.07 9.12 47.14 10.38Q47.21 11.64 47.21 12.48L47.21 12.48Q47.21 14.06 47.08 15.26Q46.95 16.46 46.55 17.29Q46.15 18.11 45.39 18.53Q44.63 18.95 43.36 18.95L43.36 18.95Q42.34 18.95 41.23 18.53Q40.12 18.11 38.97 17.39Q37.83 16.68 36.67 15.76Q35.51 14.84 34.39 13.85Q33.28 12.85 32.24 11.86Q31.19 10.86 30.29 10L30.29 10Q29.92 9.63 29.61 9.63L29.61 9.63Q29.34 9.63 29.19 9.85Q29.04 10.08 29.04 10.47ZM55.76 21.56L55.76 21.56Q55.20 21.66 54.75 21.79Q54.30 21.91 53.63 21.91L53.63 21.91Q52.91 21.91 52.52 21.50Q52.13 21.09 52.13 20.59L52.13 20.59Q52.13 20.18 52.27 19.52Q52.40 18.87 52.40 18.20L52.40 18.20Q52.27 15.68 52.04 13.21Q51.82 10.74 51.60 8.69Q51.39 6.64 51.23 5.19Q51.07 3.73 51.07 3.20L51.07 3.20Q51.07 2.85 51.25 2.55Q51.43 2.25 51.74 2.01Q52.05 1.78 52.47 1.65Q52.89 1.52 53.36 1.52L53.36 1.52Q54.28 1.52 54.71 1.81Q55.14 2.09 55.23 2.71L55.23 2.71Q55.78 6.91 56.03 10.42Q56.27 13.93 56.37 16.99L56.37 16.99Q56.37 17.44 56.61 17.68Q56.86 17.91 57.25 17.91L57.25 17.91Q58.03 17.91 58.83 17.82Q59.63 17.73 60.43 17.64Q61.23 17.54 62.02 17.45Q62.81 17.36 63.55 17.36L63.55 17.36Q64.04 17.36 64.35 17.48Q64.65 17.60 64.81 17.79Q64.98 17.99 65.03 18.23Q65.08 18.48 65.08 18.71L65.08 18.71Q65.08 19.08 65 19.45Q64.92 19.82 64.73 20.13Q64.53 20.43 64.20 20.63Q63.87 20.84 63.36 20.88L63.36 20.88Q60.96 21.11 58.97 21.23Q56.99 21.35 55.76 21.56ZM65.72 1.99L65.72 1.99Q65.72 1.64 65.90 1.34Q66.07 1.04 66.39 0.81Q66.70 0.59 67.12 0.45Q67.54 0.31 68.01 0.31L68.01 0.31Q68.93 0.31 69.36 0.61Q69.79 0.90 69.88 1.52L69.88 1.52Q70.21 4.12 70.44 6.44Q70.66 8.75 70.80 10.85Q70.94 12.95 71.00 14.87Q71.05 16.80 71.05 18.59L71.05 18.59Q71.05 19.57 70.36 20.06Q69.67 20.55 68.34 20.55L68.34 20.55Q67.73 20.55 67.39 20.26Q67.05 19.98 67.05 19.43L67.05 19.43Q67.05 16.07 66.85 13.13Q66.64 10.20 66.39 7.91Q66.13 5.63 65.93 4.09Q65.72 2.56 65.72 1.99ZM79.41 10.47L79.41 10.47Q79.41 11.29 79.49 12.17Q79.57 13.05 79.68 13.93Q79.79 14.80 79.86 15.69Q79.94 16.58 79.94 17.44L79.94 17.44Q79.94 18.40 79.28 18.99Q78.61 19.59 77.50 19.59L77.50 19.59Q76.95 19.59 76.47 19.26Q76.00 18.93 75.94 18.20L75.94 18.20Q75.84 17.29 75.75 16.14Q75.66 15 75.60 13.78Q75.53 12.56 75.47 11.32Q75.41 10.08 75.37 8.94Q75.33 7.79 75.31 6.83Q75.29 5.86 75.29 5.20L75.29 5.20Q75.29 4.61 75.37 4.08Q75.45 3.55 75.70 3.16Q75.96 2.77 76.40 2.54Q76.84 2.30 77.58 2.30L77.58 2.30Q78.14 2.30 78.85 2.71Q79.55 3.11 80.36 3.79Q81.17 4.47 82.09 5.36Q83.01 6.25 83.98 7.23Q84.96 8.20 85.99 9.21Q87.01 10.21 88.07 11.11L88.07 11.11Q88.54 11.52 89.13 12.07Q89.73 12.62 90.36 13.11Q91.00 13.59 91.63 13.94Q92.27 14.28 92.85 14.28L92.85 14.28Q93.40 14.28 93.56 13.80Q93.73 13.32 93.73 12.27L93.73 12.27Q93.73 11.48 93.60 10.33Q93.48 9.18 93.24 7.87Q93.01 6.56 92.66 5.24Q92.30 3.93 91.86 2.83L91.86 2.83Q91.76 2.60 91.67 2.37Q91.58 2.15 91.58 1.88L91.58 1.88Q91.58 1.43 91.88 1.07Q92.17 0.72 92.58 0.49Q92.99 0.25 93.44 0.13Q93.89 0 94.18 0L94.18 0Q94.82 0 95.33 0.69Q95.84 1.39 96.22 2.49Q96.60 3.59 96.86 4.97Q97.11 6.35 97.28 7.73Q97.44 9.12 97.51 10.38Q97.58 11.64 97.58 12.48L97.58 12.48Q97.58 14.06 97.45 15.26Q97.32 16.46 96.92 17.29Q96.52 18.11 95.76 18.53Q95 18.95 93.73 18.95L93.73 18.95Q92.71 18.95 91.60 18.53Q90.49 18.11 89.35 17.39Q88.20 16.68 87.04 15.76Q85.88 14.84 84.77 13.85Q83.65 12.85 82.61 11.86Q81.56 10.86 80.66 10L80.66 10Q80.29 9.63 79.98 9.63L79.98 9.63Q79.71 9.63 79.56 9.85Q79.41 10.08 79.41 10.47ZM102.58 15.43L102.58 15.43Q102.52 15.43 102.39 15.45Q102.27 15.47 102.12 15.49Q101.97 15.51 101.84 15.53Q101.70 15.55 101.62 15.55L101.62 15.55Q101.07 15.55 100.66 15.09Q100.25 14.63 100.25 13.87L100.25 13.87Q100.25 13.36 100.59 12.89Q100.92 12.42 101.62 12.11L101.62 12.11Q101.84 12.01 101.96 11.88Q102.09 11.76 102.09 11.52L102.09 11.52Q102.09 10.90 102.06 10.19Q102.03 9.47 101.97 8.52L101.97 8.52Q101.95 8.32 101.85 8.14Q101.74 7.97 101.61 7.74Q101.48 7.52 101.39 7.25Q101.29 6.97 101.29 6.56L101.29 6.56Q101.29 6.19 101.40 5.71Q101.50 5.23 101.85 4.81Q102.19 4.39 102.80 4.11Q103.42 3.83 104.41 3.83L104.41 3.83Q104.82 3.83 105.10 3.91Q105.37 3.98 105.58 4.09Q105.78 4.20 105.95 4.28Q106.11 4.36 106.29 4.36L106.29 4.36Q106.60 4.36 107.54 4.24Q108.48 4.12 109.79 3.91Q111.11 3.69 112.71 3.42Q114.30 3.14 115.94 2.82Q117.58 2.50 119.14 2.17Q120.70 1.84 121.97 1.52L121.97 1.52Q122.36 1.43 122.66 1.43L122.66 1.43Q123.07 1.43 123.31 1.61Q123.55 1.80 123.67 2.07Q123.79 2.34 123.82 2.69Q123.85 3.03 123.85 3.32L123.85 3.32Q123.85 3.83 123.51 4.27Q123.16 4.71 122.38 4.96L122.38 4.96Q120.45 5.53 118.49 5.95Q116.52 6.37 114.53 6.71Q112.54 7.05 110.53 7.32Q108.52 7.60 106.52 7.87L106.52 7.87Q106.25 7.91 106.11 8.08Q105.98 8.24 105.98 8.52L105.98 8.52L105.98 9.32Q105.98 9.65 106.00 10Q106.02 10.35 106.08 10.64Q106.15 10.94 106.27 11.12Q106.39 11.31 106.58 11.31L106.58 11.31Q107.05 11.31 108.04 11.11Q109.02 10.92 110.26 10.63Q111.50 10.35 112.86 10.01Q114.22 9.67 115.43 9.38Q116.64 9.10 117.56 8.91Q118.48 8.71 118.85 8.71L118.85 8.71Q119.39 8.71 119.68 9.11Q119.96 9.51 120.06 10.12L120.06 10.12Q120.06 10.21 120.08 10.29Q120.10 10.37 120.10 10.47L120.10 10.47Q120.10 11.04 119.76 11.51Q119.41 11.99 118.54 12.23L118.54 12.23Q118.30 12.30 117.60 12.47Q116.89 12.64 115.94 12.86Q114.98 13.09 113.87 13.34Q112.75 13.59 111.68 13.84Q110.61 14.08 109.68 14.31Q108.75 14.53 108.16 14.67L108.16 14.67Q107.64 14.80 107.53 14.88Q107.42 14.96 107.42 15.08L107.42 15.08Q107.46 15.51 107.86 15.88Q108.26 16.25 108.88 16.56Q109.49 16.88 110.26 17.13Q111.04 17.38 111.87 17.55Q112.70 17.71 113.50 17.81Q114.30 17.91 114.98 17.91L114.98 17.91Q115.27 17.91 115.82 17.91Q116.37 17.91 117.02 17.88Q117.68 17.85 118.37 17.79Q119.06 17.73 119.62 17.63Q120.18 17.52 120.54 17.35Q120.90 17.19 120.90 16.95L120.90 16.95Q120.90 16.74 120.75 16.50Q120.61 16.27 120.61 16.00L120.61 16.00Q120.61 15.61 120.82 15.22Q121.04 14.84 121.38 14.54Q121.72 14.24 122.16 14.05Q122.60 13.87 123.05 13.87L123.05 13.87Q123.61 13.87 124.08 14.09Q124.55 14.32 124.89 14.68Q125.23 15.04 125.42 15.51Q125.61 15.98 125.61 16.46L125.61 16.46Q125.61 17.75 124.66 18.69Q123.71 19.63 122.19 20.24Q120.66 20.86 118.75 21.16Q116.84 21.46 114.90 21.46L114.90 21.46Q112.64 21.46 110.76 21.16Q108.89 20.86 107.40 20.20Q105.92 19.53 104.84 18.47Q103.77 17.40 103.09 15.88L103.09 15.88Q102.85 15.43 102.58 15.43Z" transform="translate(12 88.888) scale(1.03)"></path></svg>